# xmcd CD database file
#
# Track frame offsets:
#	150
#	36474
#	56124
#	71002
#	103056
#	136901
#	152230
#	192604
#	211999
#	241316
#	272853
#
# Disc length: 3970 seconds
#
# Revision: 0
# Processed by: cddbd v1.5.2PL0 Copyright (c) Steve Scherf et al.
# Submitted via: CDex 1.51
#
DISCID=ae0f800b
DTITLE=King Size Slim - Live at The Man of Kent Alehouse
DYEAR=2010
DGENRE=Blues
TTITLE0=Mess Around
TTITLE1=Long Lonely Time
TTITLE2=I Hope It's You
TTITLE3=Spoonful
TTITLE4=Not Fade Away
TTITLE5=Only My Good Self To Blame
TTITLE6=Milk Drunk - Dark Soul
TTITLE7=Angel Dear
TTITLE8=Iko Iko
TTITLE9=Wake Up The Town
TTITLE10=Boom Boom
EXTD=YEAR: 2010
EXTT0=
EXTT1=
EXTT2=
EXTT3=
EXTT4=
EXTT5=
EXTT6=
EXTT7=
EXTT8=
EXTT9=
EXTT10=
PLAYORDER=
